<svg width="34" height="34" viewBox="0 0 34 34" fill="none" xmlns="http://www.w3.org/2000/svg">
<path d="M23.854 13.3473C21.5225 12.8292 19.7884 13.851 19.2127 14.4267C23.1848 14.7721 26.4085 17.9526 27.5238 19.4997C28.0419 17.1683 26.7323 15.1463 26.0127 14.4267C32.2298 5.10099 33.928 1.90606 34 1.4743C33.5683 -0.252683 32.273 -0.0368104 31.7333 0.0711261C31.3016 0.157475 26.3005 8.95791 23.854 13.3473Z" fill="#D6D6D6"/>
<path d="M22.5587 29.5378C11.1606 38.5181 2.77037 30.6891 0 25.6521C6.26032 24.3568 5.72064 23.8172 9.71429 19.3918C13.7079 14.9664 16.1905 15.506 17.2698 15.3981C18.3492 15.2902 28.927 17.233 27.9556 25.6521C27.1784 32.3873 22.019 33.7113 19.5365 33.5314C21.7816 32.1498 22.4868 30.2933 22.5587 29.5378Z" fill="#D6D6D6"/>
</svg>
