<svg width="25" height="25" viewBox="0 0 25 25" fill="none" xmlns="http://www.w3.org/2000/svg">
<g id="Icon / Google">
<path id="Shape" fill-rule="evenodd" clip-rule="evenodd" d="M24.5 12.7841C24.5 11.8977 24.4205 11.0455 24.2727 10.2273H12.5V15.0625H19.2273C18.9375 16.625 18.0568 17.9489 16.733 18.8352V21.9716H20.7727C23.1364 19.7955 24.5 16.5909 24.5 12.7841Z" fill="#4285F4"/>
<path id="Shape_2" fill-rule="evenodd" clip-rule="evenodd" d="M12.5 25C15.875 25 18.7046 23.8807 20.7728 21.9716L16.733 18.8352C15.6137 19.5852 14.1819 20.0284 12.5 20.0284C9.24436 20.0284 6.48868 17.8295 5.50573 14.875H1.32959V18.1136C3.38641 22.1989 7.61368 25 12.5 25Z" fill="#34A853"/>
<path id="Shape_3" fill-rule="evenodd" clip-rule="evenodd" d="M5.50568 14.8749C5.25568 14.1249 5.11364 13.3237 5.11364 12.4999C5.11364 11.676 5.25568 10.8749 5.50568 10.1249V6.88623H1.32955C0.482955 8.57373 0 10.4828 0 12.4999C0 14.5169 0.482955 16.426 1.32955 18.1135L5.50568 14.8749Z" fill="#FBBC05"/>
<path id="Shape_4" fill-rule="evenodd" clip-rule="evenodd" d="M12.5 4.97159C14.3353 4.97159 15.983 5.60227 17.2785 6.84091L20.8637 3.25568C18.6989 1.23864 15.8694 0 12.5 0C7.61368 0 3.38641 2.80114 1.32959 6.88636L5.50573 10.125C6.48868 7.17045 9.24436 4.97159 12.5 4.97159Z" fill="#EA4335"/>
</g>
</svg>
