<svg width="92" height="171" viewBox="0 0 92 171" fill="none" xmlns="http://www.w3.org/2000/svg">
<path d="M27.8074 5.5579C27.0819 5.72701 26.4233 5.93111 25.7521 6.28425C22.7749 7.85086 19.5282 9.43427 16.8789 11.6328C14.2812 13.7887 12.3453 17.5082 11.2665 20.8553C8.67984 28.8808 11.6746 37.3625 15.0114 44.5168C16.0988 46.8482 17.1975 49.2945 18.7465 51.3071C20.1174 53.0886 21.9356 54.4295 23.7562 55.5662C28.6636 58.6304 34.1732 60.8251 39.724 61.8613C44.2478 62.7057 48.49 62.3967 52.9251 60.9148C58.6462 59.0032 64.1724 54.8061 68.0332 49.7114C72.0516 44.4088 73.2515 37.327 72.2722 30.54C71.8803 27.8242 70.9845 25.2245 70.0193 22.7042C69.1308 20.3841 67.4402 18.95 65.6519 17.4877C64.211 16.3094 62.9285 14.9171 61.4623 13.7789C59.5573 12.3001 57.5192 10.9043 55.504 9.61887C49.9135 6.05273 43.5835 4.74205 37.2339 4.17122C33.356 3.82258 29.6896 5.22033 25.8905 5.85504C25.2339 5.96474 23.7731 5.996 24.7838 6.74647" stroke="black" stroke-width="1.22974" stroke-linecap="round"/>
<path d="M30.6454 26.9983C30.9413 28.9634 31.2637 30.9312 31.5651 32.8904C31.6115 33.1924 31.9032 33.3732 31.555 33.5473" stroke="black" stroke-width="1.22974" stroke-linecap="round"/>
<path d="M48.6552 24.6333C49.1711 26.9077 49.5208 29.2509 50.1105 31.5057C50.1955 31.8308 50.2924 32.1193 50.2924 32.4557" stroke="black" stroke-width="1.22974" stroke-linecap="round"/>
<path d="M35.0115 41.3697C36.9043 43.3316 39.0322 45.8029 41.6009 46.9687C44.0464 48.0786 46.2459 47.709 48.6755 46.7666C51.2788 45.7568 53.9308 42.4346 53.9308 39.5505" stroke="black" stroke-width="1.22974" stroke-linecap="round"/>
<path d="M42.3573 63.24C36.4833 65.2592 33.0423 71.9074 30.2504 77.0617C28.7023 79.9197 27.4811 82.9531 25.9191 85.7981C24.4594 88.4569 23.8422 91.4671 22.7852 94.2537C20.8393 99.3838 19.9395 105.909 20.5531 111.431C20.7131 112.871 20.4735 116.492 22.667 116.723C24.5909 116.926 26.0668 118.512 28.0478 118.586C29.217 118.629 30.396 118.586 31.5661 118.586C32.9151 118.586 34.1875 118.973 35.4982 118.645C36.3954 118.421 37.2664 118.665 38.1591 118.32C39.2092 117.914 40.3159 117.611 41.3225 117.108C43.4897 116.024 46.0147 115.874 48.2112 114.861C49.7113 114.168 51.0191 113.628 52.6164 113.205C53.4237 112.991 54.1572 112.466 54.9964 112.466C56.508 112.466 58.0238 112.507 59.5346 112.466C61.6778 112.408 64.0265 111.264 66.0833 110.707C68.8327 109.962 71.6277 108.763 73.2232 106.346C74.5556 104.327 75.4143 101.92 76.0171 99.5754C76.5523 97.494 76.9464 94.2336 76.1502 92.1546C75.2997 89.934 72.8608 88.1557 71.2424 86.5373C69.6086 84.9035 67.7913 83.4254 66.2607 81.7034C64.8889 80.1602 62.704 78.0235 60.865 77.0173C58.4524 75.6972 57.0584 72.8854 55.1442 70.9713C54.3374 70.1645 53.3666 69.5363 52.6164 68.8278C51.6821 67.9454 49.8298 67.2485 48.6251 66.8469C47.3341 66.4166 46.0721 65.9251 44.7521 65.5756C43.5993 65.2705 39.0152 63.006 38.366 64.3043" stroke="black" stroke-width="1.23614" stroke-linecap="round"/>
<path d="M53.799 65.9006C52.744 66.1116 55.8906 66.41 56.9477 66.6102C59.5864 67.11 62.2193 67.6395 64.8563 68.1476C66.6838 68.4997 68.5069 69.0937 70.385 69.0937C72.2057 69.0937 74.252 69.4372 76.0319 69.8328C78.3479 70.3474 80.8842 69.9239 83.2015 70.4389C87.891 71.481 79.5953 78.4207 78.6632 79.3527C76.4683 81.5476 73.8568 83.2122 71.6267 85.3249C71.3228 85.6128 70.6942 86.1274 70.5772 86.537C70.4444 87.0016 70.6039 87.1044 70.8285 86.6553" stroke="black" stroke-width="1.23614" stroke-linecap="round"/>
<path d="M33.3105 66.699C26.7554 69.0984 20.1394 71.5758 13.7089 74.2676C11.8539 75.0441 9.94472 76.0409 8.23934 77.0763C6.44937 78.1631 2.9019 79.2299 4.44023 81.9989C5.06871 83.1302 6.0821 84.3479 6.9976 85.3397C8.42929 86.8907 9.69614 88.506 11.2845 89.9075C12.1491 90.6704 13.3836 90.8297 14.2854 91.5928C16.0536 93.0889 17.1761 94.285 19.3262 95.2884C20.8619 96.005 22.5213 96.8469 23.9975 97.831" stroke="black" stroke-width="1.23614" stroke-linecap="round"/>
<path d="M41.5591 117.787C41.5591 122.138 42.1436 126.758 41.4113 131.047C40.7112 135.148 41.4995 139.286 41.0861 143.42C40.667 147.611 41.2169 152.454 41.9583 156.606C42.1839 157.87 42.5823 160.402 41.5591 161.425" stroke="black" stroke-width="1.23614" stroke-linecap="round"/>
<path d="M56.9921 114.861C56.8931 116.247 56.9657 116.268 57.2286 118.512C58.9923 133.562 61.3237 148.544 63.3782 163.554" stroke="black" stroke-width="1.23614" stroke-linecap="round"/>
</svg>
