<svg width="51" height="67" viewBox="0 0 51 67" fill="none" xmlns="http://www.w3.org/2000/svg">
<path d="M14.4495 44.563C14.4495 41.0482 14.8987 37.1992 14.0293 33.8084C13.6099 32.1729 12.9459 30.3248 12.2083 28.7969C11.773 27.8953 11.6418 26.8298 11.3678 25.8709C11.0992 24.9307 10.6908 24.0589 10.3873 23.1317C9.48653 20.3792 8.73854 17.6727 8.0372 14.8673C7.59167 13.0852 7.30928 11.0285 7.17341 9.19433C7.08335 7.97854 6.88548 6.68814 6.88548 5.48237C6.88548 4.42423 6.74541 3.39024 6.74541 2.3307C6.74541 2.22693 6.64227 1.85601 6.67537 1.85601C7.12233 1.85601 7.70826 2.11491 8.2084 2.12059C11.1649 2.15419 14.1557 2.22226 17.1109 2.11281C20.7791 1.97695 24.4417 1.45008 28.1145 1.42022C30.1119 1.40398 32.2205 1.62511 34.1999 1.35018C35.5283 1.16569 36.7796 1 38.122 1C39.57 1 40.8795 1.25365 42.3086 1.41244C43.1356 1.50433 43.2688 1.76131 43.5148 2.5486C44.6138 6.06543 44.2852 10.096 44.2852 13.7234C44.2852 17.84 44.2852 21.9566 44.2852 26.0732C44.2852 30.8124 44.2852 35.5516 44.2852 40.2907C44.2852 40.8193 44.365 41.5675 44.114 42.0417C43.9954 42.2657 43.3676 42.3109 43.1646 42.3218C41.9912 42.3847 40.6817 42.5945 39.5227 42.8199C36.2665 43.453 32.8994 42.9504 29.6397 43.5124C28.0286 43.7902 26.3087 43.8626 24.6749 43.8626C23.0532 43.8626 21.3889 44.1142 19.7801 44.2751C19.2646 44.3266 18.7391 44.2391 18.2237 44.2906C17.7121 44.3418 17.2036 44.5487 16.6907 44.563C15.8854 44.5854 15.1176 44.7031 14.3094 44.7031M37.7018 23.8321C34.1999 23.8321 40.1499 24.0847 41.1413 23.7542C41.8204 23.5279 42.431 23.1317 43.1646 23.1317" stroke="black" stroke-linecap="round"/>
<path d="M3.07031 55.5625L2.95312 59.4453C2.95312 59.8568 2.93229 60.4609 2.89062 61.2578C2.83854 61.7786 2.58333 62.0391 2.125 62.0391C1.61458 62.0391 1.35938 61.7734 1.35938 61.2422C1.35938 60.612 1.38802 59.6667 1.44531 58.4062C1.5026 57.1406 1.53125 56.1927 1.53125 55.5625C1.53125 54.7396 1.54427 53.7995 1.57031 52.7422C1.59635 51.6797 1.60938 50.737 1.60938 49.9141C1.60938 49.3932 1.86458 49.1328 2.375 49.1328C2.89062 49.1328 3.14844 49.3932 3.14844 49.9141C3.14844 50.737 3.13542 51.6797 3.10938 52.7422C3.08333 53.7995 3.07031 54.7396 3.07031 55.5625ZM8.40625 62.1641C7.53125 62.1641 6.77865 61.8411 6.14844 61.1953C5.44531 60.4766 5.07552 59.5104 5.03906 58.2969C5.00781 57.1198 5.30469 56.0833 5.92969 55.1875C6.65885 54.1302 7.67448 53.6016 8.97656 53.6016C10.0182 53.6016 10.8073 54.0781 11.3438 55.0312C11.7708 55.8021 11.9766 56.7292 11.9609 57.8125C11.9453 58.9688 11.6432 59.9557 11.0547 60.7734C10.388 61.7005 9.50521 62.1641 8.40625 62.1641ZM8.875 55.1875C8.10938 55.1823 7.51302 55.5469 7.08594 56.2812C6.7474 56.8698 6.57812 57.5417 6.57812 58.2969C6.57812 59.0521 6.78385 59.6406 7.19531 60.0625C7.53906 60.4115 7.94271 60.5859 8.40625 60.5859C8.94792 60.5859 9.41406 60.388 9.80469 59.9922C10.2474 59.5547 10.4818 58.9635 10.5078 58.2188C10.5807 56.2031 10.0365 55.1927 8.875 55.1875ZM20.3281 58.3359L20.1484 60.9609C20.1172 62.0026 20.0104 62.8542 19.8281 63.5156C19.5938 64.3594 19.2188 64.9818 18.7031 65.3828C18.0781 65.8672 17.1745 66.1094 15.9922 66.1094C15.2995 66.1094 14.7188 66.0625 14.25 65.9688C13.5938 65.8385 13.2656 65.5677 13.2656 65.1562C13.2656 64.6927 13.4922 64.4609 13.9453 64.4609C14.1328 64.4609 14.4453 64.5052 14.8828 64.5938C15.3203 64.6875 15.8047 64.7292 16.3359 64.7188C17.3359 64.7031 18.026 64.2188 18.4062 63.2656C18.6562 62.6302 18.7891 61.6536 18.8047 60.3359C18.5234 60.8568 18.1875 61.2474 17.7969 61.5078C17.4115 61.7682 16.9688 61.8984 16.4688 61.8984C15.526 61.8984 14.7578 61.5781 14.1641 60.9375C13.5755 60.2917 13.2812 59.4557 13.2812 58.4297C13.2812 57.0234 13.6849 55.8906 14.4922 55.0312C15.3255 54.1458 16.4609 53.7031 17.8984 53.7031C18.3828 53.7031 18.7891 53.7656 19.1172 53.8906C19.4453 54.0156 19.6953 54.2031 19.8672 54.4531C20.4245 54.4688 20.7031 54.7786 20.7031 55.3828C20.7031 55.7526 20.6484 56.2474 20.5391 56.8672C20.4193 57.5859 20.349 58.0755 20.3281 58.3359ZM17.8203 54.9531C16.8307 54.9531 16.0651 55.2943 15.5234 55.9766C15.0391 56.5911 14.7969 57.3724 14.7969 58.3203C14.7969 59.0755 14.9401 59.6432 15.2266 60.0234C15.513 60.4036 15.9427 60.5938 16.5156 60.5938C17.0417 60.5938 17.5521 60.2969 18.0469 59.7031C18.4948 59.1562 18.75 58.6146 18.8125 58.0781C18.9219 57.5156 19.0391 56.6328 19.1641 55.4297C18.9557 55.2682 18.7396 55.1484 18.5156 55.0703C18.2917 54.9922 18.0599 54.9531 17.8203 54.9531ZM30.1094 62.1641C29.2344 62.1641 28.4818 61.8411 27.8516 61.1953C27.1484 60.4766 26.7786 59.5104 26.7422 58.2969C26.7109 57.1198 27.0078 56.0833 27.6328 55.1875C28.362 54.1302 29.3776 53.6016 30.6797 53.6016C31.7214 53.6016 32.5104 54.0781 33.0469 55.0312C33.474 55.8021 33.6797 56.7292 33.6641 57.8125C33.6484 58.9688 33.3464 59.9557 32.7578 60.7734C32.0911 61.7005 31.2083 62.1641 30.1094 62.1641ZM30.5781 55.1875C29.8125 55.1823 29.2161 55.5469 28.7891 56.2812C28.4505 56.8698 28.2812 57.5417 28.2812 58.2969C28.2812 59.0521 28.487 59.6406 28.8984 60.0625C29.2422 60.4115 29.6458 60.5859 30.1094 60.5859C30.651 60.5859 31.1172 60.388 31.5078 59.9922C31.9505 59.5547 32.1849 58.9635 32.2109 58.2188C32.2839 56.2031 31.7396 55.1927 30.5781 55.1875ZM41.9766 57.1406C41.9766 57.5156 41.9792 58.0781 41.9844 58.8281C41.9896 59.5781 41.9922 60.1406 41.9922 60.5156C41.9922 60.6302 42 60.8047 42.0156 61.0391C42.0365 61.2734 42.0469 61.4479 42.0469 61.5625C42.0469 61.7865 41.9714 61.9688 41.8203 62.1094C41.6693 62.2552 41.4844 62.3281 41.2656 62.3281C40.8646 62.3281 40.6094 62.0807 40.5 61.5859C39.849 61.9245 39.099 62.0938 38.25 62.0938C37.5677 62.0938 37.0026 61.9427 36.5547 61.6406C36.0599 61.3073 35.7656 60.8203 35.6719 60.1797C35.4688 58.7995 35.3672 57.5703 35.3672 56.4922C35.3672 55.7786 35.4453 54.9661 35.6016 54.0547C35.6745 53.6016 35.9219 53.375 36.3438 53.375C36.5677 53.375 36.7552 53.4479 36.9062 53.5938C37.0573 53.7344 37.1328 53.9167 37.1328 54.1406C37.1328 54.3802 37.0938 54.763 37.0156 55.2891C36.9427 55.8151 36.9062 56.2161 36.9062 56.4922C36.9062 57.362 36.9349 58.1068 36.9922 58.7266C37.0495 59.3464 37.1354 59.8438 37.25 60.2188C37.4219 60.3125 37.5911 60.3854 37.7578 60.4375C37.9245 60.4844 38.0885 60.5078 38.25 60.5078C38.9479 60.5078 39.6849 60.3958 40.4609 60.1719L40.4531 58.5859L40.4375 57.0703C40.4375 55.9453 40.487 54.9688 40.5859 54.1406C40.6432 53.6615 40.8958 53.4219 41.3438 53.4219C41.5677 53.4219 41.7552 53.4948 41.9062 53.6406C42.0573 53.7865 42.1276 53.9688 42.1172 54.1875L41.9766 57.1406ZM49.1562 55.0469C49.0469 55.0469 48.9167 55.0417 48.7656 55.0312C48.6198 55.0208 48.4922 55.0156 48.3828 55.0156C48.263 55.0156 47.9089 55.0547 47.3203 55.1328L47.4688 59.75L47.4766 60.0938L47.4844 60.4922C47.5052 61.6328 47.2318 62.2031 46.6641 62.2031C46.4557 62.2031 46.2734 62.1354 46.1172 62C45.9661 61.8646 45.8906 61.6953 45.8906 61.4922C45.8906 61.2943 45.8984 60.9974 45.9141 60.6016C45.9297 60.2057 45.9375 59.9089 45.9375 59.7109L45.7812 55.1484C45.401 55.1328 44.8229 55.0885 44.0469 55.0156C43.5833 54.9531 43.3516 54.6953 43.3516 54.2422C43.3516 54.013 43.4219 53.8229 43.5625 53.6719C43.7031 53.5208 43.8828 53.4453 44.1016 53.4453L45.7422 53.5781C45.7422 53.3125 45.7292 52.9583 45.7031 52.5156C45.6823 52.0677 45.6719 51.7448 45.6719 51.5469C45.6719 51.3281 45.7474 51.1484 45.8984 51.0078C46.0495 50.862 46.2344 50.7891 46.4531 50.7891C46.9219 50.7891 47.1953 51.1719 47.2734 51.9375C47.2891 52.1302 47.2969 52.362 47.2969 52.6328L47.2812 53.0859L47.2734 53.5703C47.9193 53.487 48.2891 53.4453 48.3828 53.4453C48.9245 53.4453 49.2786 53.4714 49.4453 53.5234C49.763 53.6276 49.9219 53.8724 49.9219 54.2578C49.9219 54.487 49.849 54.6771 49.7031 54.8281C49.5625 54.974 49.3802 55.0469 49.1562 55.0469Z" fill="black"/>
</svg>
