<svg width="61" height="67" viewBox="0 0 61 67" fill="none" xmlns="http://www.w3.org/2000/svg">
<path d="M20.0099 13.6132C18.4685 14.0065 17.0296 14.3501 16.9873 16.2124C16.9548 17.6447 16.7069 18.973 17.0895 20.3885C17.7349 22.7766 20.823 24.1267 23.1055 24.1267C24.8388 24.1267 27.1407 23.3841 27.9972 21.7027C28.6069 20.5059 29.7546 17.2659 28.6543 16.081C27.638 14.9864 26.527 13.8032 24.9746 13.584C23.8337 13.4229 22.6488 13.2171 21.4993 13.4234C21.1102 13.4933 20.2127 13.4705 20.0099 13.8761" stroke="black" stroke-width="0.888373" stroke-linecap="round"/>
<path d="M36.3727 3.26855C35.2892 3.44914 33.5796 3.88601 32.7807 4.68495C32.02 5.4456 31.2285 6.58056 30.9189 7.61264C30.4551 9.15873 30.248 10.4281 30.9846 11.9421C32.1066 14.2485 34.4254 15.4904 36.9714 15.4904C37.9869 15.4904 38.7752 15.73 39.7823 15.359C40.8078 14.9812 41.5269 14.4751 42.2573 13.6798C43.2438 12.6056 43.7357 11.0441 44.2578 9.70803C44.5783 8.88793 44.7099 7.61287 44.4476 6.75113C43.3709 3.21339 39.3683 3.53139 36.3727 3.53139" stroke="black" stroke-width="0.888373" stroke-linecap="round"/>
<path d="M34.4591 42.8979C34.4061 43.1476 34.2738 42.4157 34.2351 42.1637C33.979 40.4948 33.8032 38.804 33.6249 37.1258C33.547 36.3931 33.3745 35.6161 33.3468 34.8868C33.2597 32.5927 33.903 30.4007 33.903 28.1115C33.903 26.617 34.0942 25.2122 34.351 23.7352C34.52 22.7633 34.7111 21.7917 34.8763 20.8201C34.984 20.1867 34.8844 19.1998 35.2239 18.6247C35.6646 17.8781 36.9096 16.8734 37.9353 17.2798C38.6231 17.5524 39.0023 17.66 39.4802 18.174C40.6581 19.4409 41.1141 20.9961 41.5504 22.6157C42.8086 27.2861 43.7702 32.0214 44.4704 36.7987C44.6835 38.253 44.8875 39.8132 44.8875 41.2622C44.8875 42.061 44.866 42.2436 43.8988 42.2436C42.5641 42.2436 41.2236 42.3394 39.8819 42.3745C38.8445 42.4016 37.8157 42.6362 36.7534 42.6362C36.4473 42.6362 35.5677 42.482 35.3243 42.6653C35.1617 42.7877 34.9566 42.8979 34.7372 42.8979" stroke="black" stroke-width="0.888373" stroke-linecap="round"/>
<path d="M17.4401 43.3107C17.0913 40.826 16.7928 38.4014 16.7928 35.9076C16.7928 34.7733 16.6689 33.6069 16.9546 32.4878C17.3159 31.0727 17.7902 29.6197 18.6989 28.3252C19.1029 27.7498 19.7764 27.5273 20.6051 27.403C22.3773 27.1373 24.1206 27.1111 25.2986 28.3316C25.6871 28.734 25.9985 29.1791 26.2787 29.6252C26.9309 30.6637 27.9177 31.5741 28.6974 32.5647C29.6654 33.7946 29.5112 35.2662 29.5875 36.6248C29.6617 37.9447 30.3878 39.2208 30.3878 40.5441C30.3878 40.8168 30.3448 42.5859 29.9022 42.619C28.8736 42.6962 27.8085 42.8682 26.8002 43.0161C24.8622 43.3003 22.9297 43.2874 20.9648 43.3107C19.7584 43.325 18.4561 43.5412 17.2783 43.5412" stroke="black" stroke-width="0.888373" stroke-linecap="round"/>
<path d="M7.07812 61.6882C6.63021 61.6882 6.3776 61.4434 6.32031 60.9539L6.10156 59.2429C6.02865 58.6335 5.99219 58.0632 5.99219 57.532C5.99219 57.3861 6 57.1388 6.01562 56.7898C6.03646 56.4408 6.04688 56.1934 6.04688 56.0476C6.04688 54.9226 5.83854 54.3601 5.42188 54.3601C4.83854 54.3601 4.28125 54.7065 3.75 55.3992C3.27083 56.0294 2.89583 56.8263 2.625 57.7898C2.61458 57.9929 2.59115 58.2481 2.55469 58.5554C2.52344 58.8158 2.50781 59.0684 2.50781 59.3132C2.50781 59.4695 2.52344 59.7039 2.55469 60.0164C2.58594 60.3289 2.60156 60.5632 2.60156 60.7195C2.60156 60.9539 2.52865 61.144 2.38281 61.2898C2.24219 61.4356 2.0599 61.5085 1.83594 61.5085C1.60677 61.5085 1.42188 61.4356 1.28125 61.2898C1.14062 61.144 1.07031 60.9539 1.07031 60.7195C1.07031 60.5632 1.05208 60.3289 1.01562 60.0164C0.984375 59.7039 0.96875 59.4695 0.96875 59.3132C0.96875 58.7768 1.00521 58.0346 1.07812 57.0867C1.15625 56.1335 1.19531 55.3888 1.19531 54.8523C1.19531 54.6856 1.1849 54.4382 1.16406 54.1101C1.14844 53.782 1.14062 53.5346 1.14062 53.3679C1.14062 53.144 1.21354 52.9617 1.35938 52.821C1.51042 52.6752 1.69531 52.6023 1.91406 52.6023C2.39323 52.6023 2.65625 52.9408 2.70312 53.6179L2.72656 54.532C3.60156 53.3653 4.5 52.782 5.42188 52.782C6.25521 52.782 6.83594 53.1492 7.16406 53.8835C7.38802 54.3731 7.51042 55.0971 7.53125 56.0554V56.8445L7.52344 57.571C7.52344 58.0033 7.57812 58.5632 7.6875 59.2507C7.80208 59.933 7.85938 60.4877 7.85938 60.9148C7.85938 61.144 7.78385 61.3289 7.63281 61.4695C7.48698 61.6153 7.30208 61.6882 7.07812 61.6882ZM13.1094 61.4929C11.9323 61.4929 10.9792 61.1986 10.25 60.6101C9.45312 59.9591 9.05469 59.0476 9.05469 57.8757C9.05469 56.5216 9.38281 55.3861 10.0391 54.4695C10.7526 53.4695 11.7057 52.9695 12.8984 52.9695C13.763 52.9695 14.4688 53.1153 15.0156 53.407C15.6875 53.7664 16.0234 54.3184 16.0234 55.0632C16.0234 55.5841 15.7292 56.058 15.1406 56.4851C14.8802 56.6726 14.3281 56.9643 13.4844 57.3601L10.5 58.7742C10.7917 59.2065 11.1536 59.532 11.5859 59.7507C12.0234 59.9695 12.5312 60.0789 13.1094 60.0789C13.4688 60.0789 13.8906 60.0111 14.375 59.8757C14.9896 59.7039 15.3854 59.4799 15.5625 59.2039C15.7396 58.9226 15.9297 58.782 16.1328 58.782C16.3151 58.782 16.4766 58.8523 16.6172 58.9929C16.763 59.1283 16.8359 59.2872 16.8359 59.4695C16.8359 60.0476 16.3698 60.545 15.4375 60.9617C14.6406 61.3158 13.8646 61.4929 13.1094 61.4929ZM12.8984 54.3757C12.263 54.3757 11.7344 54.6231 11.3125 55.1179C10.8906 55.6075 10.5755 56.3471 10.3672 57.3367L12.7656 56.196C13.7083 55.7377 14.3802 55.3393 14.7812 55.0007C14.3333 54.5841 13.7057 54.3757 12.8984 54.3757ZM23.4531 54.4773C23.3438 54.4773 23.2135 54.4721 23.0625 54.4617C22.9167 54.4513 22.7891 54.446 22.6797 54.446C22.5599 54.446 22.2057 54.4851 21.6172 54.5632L21.7656 59.1804L21.7734 59.5242L21.7812 59.9226C21.8021 61.0632 21.5286 61.6335 20.9609 61.6335C20.7526 61.6335 20.5703 61.5658 20.4141 61.4304C20.263 61.295 20.1875 61.1257 20.1875 60.9226C20.1875 60.7247 20.1953 60.4278 20.2109 60.032C20.2266 59.6361 20.2344 59.3393 20.2344 59.1414L20.0781 54.5789C19.6979 54.5632 19.1198 54.519 18.3438 54.446C17.8802 54.3835 17.6484 54.1257 17.6484 53.6726C17.6484 53.4434 17.7188 53.2533 17.8594 53.1023C18 52.9513 18.1797 52.8757 18.3984 52.8757L20.0391 53.0085C20.0391 52.7429 20.026 52.3888 20 51.946C19.9792 51.4981 19.9688 51.1752 19.9688 50.9773C19.9688 50.7585 20.0443 50.5789 20.1953 50.4382C20.3464 50.2924 20.5312 50.2195 20.75 50.2195C21.2188 50.2195 21.4922 50.6023 21.5703 51.3679C21.5859 51.5606 21.5938 51.7924 21.5938 52.0632L21.5781 52.5164L21.5703 53.0007C22.2161 52.9174 22.5859 52.8757 22.6797 52.8757C23.2214 52.8757 23.5755 52.9018 23.7422 52.9539C24.0599 53.058 24.2188 53.3028 24.2188 53.6882C24.2188 53.9174 24.1458 54.1075 24 54.2585C23.8594 54.4044 23.6771 54.4773 23.4531 54.4773ZM35.125 54.1414C34.7188 55.8393 34.1875 57.7585 33.5312 59.8992C33.3854 60.3731 33.1432 60.8601 32.8047 61.3601C32.6224 61.6361 32.375 61.7716 32.0625 61.7664C31.4948 61.7559 31.0521 61.0502 30.7344 59.6492C30.6302 59.2013 30.5234 58.5919 30.4141 57.821L30.1562 56.0789L29.5156 57.571L28.3281 60.7976C28.2604 60.9955 28.1615 61.1466 28.0312 61.2507C27.875 61.5528 27.625 61.7091 27.2812 61.7195C26.8854 61.7351 26.5026 60.9591 26.1328 59.3914C25.9453 58.5841 25.7578 57.4903 25.5703 56.1101L25.3828 54.9382C25.3151 54.4695 25.2812 54.0763 25.2812 53.7585C25.2812 53.5398 25.3568 53.3601 25.5078 53.2195C25.6641 53.0736 25.8516 53.0007 26.0703 53.0007C26.4661 53.0007 26.7109 53.2169 26.8047 53.6492C26.8724 53.9565 26.9271 54.3367 26.9688 54.7898L27.0859 55.9382L27.5469 59.446C28.125 57.8419 28.724 55.9929 29.3438 53.8992C29.5156 53.321 29.8151 53.032 30.2422 53.032C30.6536 53.032 30.9323 53.3549 31.0781 54.0007C31.2135 54.6101 31.3828 55.5476 31.5859 56.8132C31.7943 58.1257 31.9792 59.1492 32.1406 59.8835L32.7109 57.7585L33.7188 53.5007C33.7969 53.183 34.0208 53.0242 34.3906 53.0242C34.6094 53.0242 34.7995 53.0997 34.9609 53.2507C35.1224 53.3966 35.2031 53.5736 35.2031 53.782C35.2031 53.808 35.1771 53.9278 35.125 54.1414ZM39.6562 61.5945C38.7812 61.5945 38.0286 61.2716 37.3984 60.6257C36.6953 59.907 36.3255 58.9408 36.2891 57.7273C36.2578 56.5502 36.5547 55.5138 37.1797 54.6179C37.9089 53.5606 38.9245 53.032 40.2266 53.032C41.2682 53.032 42.0573 53.5085 42.5938 54.4617C43.0208 55.2325 43.2266 56.1596 43.2109 57.2429C43.1953 58.3992 42.8932 59.3861 42.3047 60.2039C41.638 61.1309 40.7552 61.5945 39.6562 61.5945ZM40.125 54.6179C39.3594 54.6127 38.763 54.9773 38.3359 55.7117C37.9974 56.3002 37.8281 56.9721 37.8281 57.7273C37.8281 58.4825 38.0339 59.071 38.4453 59.4929C38.7891 59.8419 39.1927 60.0164 39.6562 60.0164C40.1979 60.0164 40.6641 59.8184 41.0547 59.4226C41.4974 58.9851 41.7318 58.394 41.7578 57.6492C41.8307 55.6335 41.2865 54.6231 40.125 54.6179ZM51.2266 55.3601C51.1901 56.0111 50.9297 56.3367 50.4453 56.3367C49.9974 56.3367 49.7734 56.0789 49.7734 55.5632C49.7734 55.4643 49.7656 55.282 49.75 55.0164L49.7266 54.3601C48.9036 54.4591 48.2448 54.6908 47.75 55.0554C47.2865 55.394 46.901 55.9044 46.5938 56.5867L46.6094 60.8679C46.6094 61.394 46.3516 61.657 45.8359 61.657C45.3776 61.657 45.1484 61.394 45.1484 60.8679V55.3835C45.1484 55.2117 45.1536 54.9539 45.1641 54.6101C45.1797 54.2664 45.1875 54.0085 45.1875 53.8367C45.1875 53.3106 45.4167 53.0476 45.875 53.0476C46.3854 53.0476 46.6432 53.4799 46.6484 54.3445C47.6484 53.3809 48.7578 52.8992 49.9766 52.8992C50.3984 52.8992 50.7135 53.058 50.9219 53.3757C51.1302 53.6934 51.2344 54.1726 51.2344 54.8132C51.2344 55.0841 51.2318 55.2664 51.2266 55.3601ZM59.3438 61.4539C59.0573 61.4539 58.8359 61.3028 58.6797 61.0007C58.4089 60.4747 58 59.8523 57.4531 59.1335L56.0703 57.2507C55.7682 57.4903 55.2995 57.8263 54.6641 58.2585C54.6068 59.0658 54.5781 59.8523 54.5781 60.6179C54.5781 60.8523 54.5052 61.0424 54.3594 61.1882C54.2188 61.3341 54.0365 61.407 53.8125 61.407C53.2865 61.407 53.0234 61.0528 53.0234 60.3445C53.0234 59.9122 53.0521 59.2664 53.1094 58.407C53.1719 57.5424 53.2031 56.894 53.2031 56.4617C53.2031 55.67 53.2135 54.7664 53.2344 53.7507C53.2604 52.7299 53.2734 51.8289 53.2734 51.0476C53.2734 50.8132 53.2604 50.5372 53.2344 50.2195C53.2135 49.9018 53.2031 49.6257 53.2031 49.3914C53.2031 49.157 53.2734 48.9669 53.4141 48.821C53.5599 48.6752 53.7448 48.6023 53.9688 48.6023C54.1927 48.6023 54.375 48.6752 54.5156 48.821C54.6615 48.9669 54.7344 49.157 54.7344 49.3914C54.7344 49.6309 54.7474 49.9148 54.7734 50.2429C54.7995 50.5658 54.8125 50.8471 54.8125 51.0867L54.7578 53.6023C54.7318 54.5085 54.724 55.4148 54.7344 56.321C55.4427 55.7794 56.125 55.1856 56.7812 54.5398L58.5 52.7664C58.6719 52.5893 58.8568 52.5007 59.0547 52.5007C59.2578 52.5007 59.4401 52.5815 59.6016 52.7429C59.7682 52.9044 59.8516 53.0919 59.8516 53.3054C59.8516 53.4825 59.776 53.657 59.625 53.8289C58.9844 54.5789 58.1953 55.3835 57.2578 56.2429L58.9609 58.5632C59.7578 59.6518 60.1562 60.3601 60.1562 60.6882C60.1562 60.8966 60.0729 61.0763 59.9062 61.2273C59.7448 61.3783 59.5573 61.4539 59.3438 61.4539Z" fill="black"/>
</svg>
