<svg width="66" height="68" viewBox="0 0 66 68" fill="none" xmlns="http://www.w3.org/2000/svg">
<g filter="url(#filter0_dd_56_1438)">
<circle cx="33" cy="30" r="26" fill="#ECECEC"/>
</g>
<path d="M18.311 22.1461H25.4644C25.753 22.1461 26.5141 22.2794 26.7776 22.1288C27.0427 21.9773 26.864 20.6662 26.864 20.4355V17.5154C26.864 17.0723 26.7416 16.5064 27.0195 16.159C27.2841 15.8283 28.8018 16.1079 29.1188 16.159C30.4388 16.3719 31.8287 16.3022 33.1621 16.4009C33.9059 16.456 34.6829 16.7033 35.4169 16.7033C36.0228 16.7033 36.6223 16.8588 37.2053 16.8588C38.135 16.8588 37.7496 18.0426 37.7496 18.7768C37.7496 19.7154 37.4982 20.9943 37.7582 21.9042C37.8063 22.0725 41.2952 21.8351 41.6027 21.8351C42.2112 21.8351 42.9337 21.7289 43.5034 21.9906C43.7475 22.1027 43.9243 22.3016 44.2032 22.3016C44.5748 22.3016 45.081 22.3636 45.4386 22.4658C45.6444 22.5246 46.1882 22.5251 46.3716 22.6299C46.6057 22.7637 46.6135 25.2271 46.6135 25.6278C46.6135 28.2443 46.9246 30.8365 46.9246 33.4637V41.5155C46.8814 42.12 45.9069 41.5155 45.4386 41.5155C44.2945 41.5155 42.7237 41.6574 41.6027 41.5155C39.2581 41.2187 37.2053 40.9281 34.4666 40.9626C31.8724 40.3947 30.4278 40.9861 27.7452 40.9626C26.0031 40.9473 24.4459 41.1362 22.7344 41.3946C21.8503 41.528 19.8137 41.6186 19.1231 40.9281C18.9628 40.7677 19.0918 40.0429 19.0713 39.8481C18.9189 38.4007 18.6298 37.0464 18.622 35.5717C18.6113 33.5271 18.622 31.4823 18.622 29.4377C18.622 28.6196 18.6694 27.8054 18.5011 27.0014C18.2839 25.964 18.2626 24.9073 18 23.8567M29.8186 28.0554C29.2184 28.0554 29.5076 29.6272 29.5076 30.1634C28.4666 31.1846 29.3017 33.2363 29.8186 34.0252C30.8142 35.5448 35.5537 36.4803 36.5833 34.0252C37.3508 32.195 37.3492 29.311 34.9591 28.833C33.8313 28.6074 30.0461 27.7977 29.5076 29.144" stroke="black" stroke-width="3" stroke-linecap="round"/>
<defs>
<filter id="filter0_dd_56_1438" x="-1" y="0" width="68" height="68" filterUnits="userSpaceOnUse" color-interpolation-filters="sRGB">
<feFlood flood-opacity="0" result="BackgroundImageFix"/>
<feColorMatrix in="SourceAlpha" type="matrix" values="0 0 0 0 0 0 0 0 0 0 0 0 0 0 0 0 0 0 127 0" result="hardAlpha"/>
<feOffset dy="4"/>
<feGaussianBlur stdDeviation="4"/>
<feColorMatrix type="matrix" values="0 0 0 0 0 0 0 0 0 0 0 0 0 0 0 0 0 0 0.06 0"/>
<feBlend mode="normal" in2="BackgroundImageFix" result="effect1_dropShadow_56_1438"/>
<feColorMatrix in="SourceAlpha" type="matrix" values="0 0 0 0 0 0 0 0 0 0 0 0 0 0 0 0 0 0 127 0" result="hardAlpha"/>
<feOffset/>
<feGaussianBlur stdDeviation="2"/>
<feColorMatrix type="matrix" values="0 0 0 0 0 0 0 0 0 0 0 0 0 0 0 0 0 0 0.04 0"/>
<feBlend mode="normal" in2="effect1_dropShadow_56_1438" result="effect2_dropShadow_56_1438"/>
<feBlend mode="normal" in="SourceGraphic" in2="effect2_dropShadow_56_1438" result="shape"/>
</filter>
</defs>
</svg>
