<svg width="51" height="67" viewBox="0 0 51 67" fill="none" xmlns="http://www.w3.org/2000/svg">
<path d="M16.2426 2.53318C15.7186 2.65535 15.2427 2.80279 14.7579 3.0579C12.6071 4.18963 10.2617 5.3335 8.34785 6.92176C6.47123 8.47913 5.0727 11.1662 4.29339 13.5841C2.42478 19.3818 4.58818 25.509 6.99874 30.6773C7.78426 32.3615 8.57801 34.1287 9.69696 35.5827C10.6873 36.8696 12.0008 37.8383 13.316 38.6595C16.8612 40.8731 20.8413 42.4585 24.8512 43.2071C28.1193 43.8171 31.1839 43.5939 34.3878 42.5233C38.5207 41.1424 42.5129 38.1104 45.302 34.4299C48.2049 30.5993 49.0718 25.4833 48.3643 20.5804C48.0812 18.6185 47.434 16.7404 46.7368 14.9198C46.0949 13.2437 44.8736 12.2077 43.5817 11.1513C42.5408 10.3002 41.6144 9.2943 40.5552 8.47208C39.179 7.40379 37.7066 6.39549 36.2509 5.46685C32.2122 2.89065 27.6394 1.94381 23.0524 1.53144C20.2509 1.27958 17.6023 2.28932 14.8578 2.74784C14.3835 2.82709 13.3282 2.84967 14.0584 3.39182" stroke="black" stroke-width="0.888373" stroke-linecap="round"/>
<path d="M18.2928 18.0217C18.5066 19.4413 18.7394 20.8629 18.9572 22.2782C18.9907 22.4964 19.2015 22.627 18.9499 22.7528" stroke="black" stroke-width="0.888373" stroke-linecap="round"/>
<path d="M31.3032 16.3135C31.6759 17.9565 31.9285 19.6493 32.3545 21.2781C32.4159 21.513 32.4859 21.7214 32.4859 21.9644" stroke="black" stroke-width="0.888373" stroke-linecap="round"/>
<path d="M21.4468 28.4038C22.8142 29.8211 24.3514 31.6064 26.2071 32.4485C27.9737 33.2503 29.5626 32.9833 31.3178 32.3025C33.1984 31.573 35.1143 29.1731 35.1143 27.0896" stroke="black" stroke-width="0.888373" stroke-linecap="round"/>
<path d="M4.40625 61.407C3.88542 61.407 3.3125 61.3236 2.6875 61.157L2.67188 64.8914C2.67188 65.1205 2.59896 65.308 2.45312 65.4539C2.3125 65.5997 2.13021 65.6726 1.90625 65.6726C1.68229 65.6726 1.4974 65.5997 1.35156 65.4539C1.21094 65.308 1.14062 65.1205 1.14062 64.8914L1.16406 61.7664V58.6492C1.14844 57.5085 1.10938 56.4695 1.04688 55.532L0.929688 53.946C0.929688 53.5763 0.997396 53.2638 1.13281 53.0085C1.28906 52.7013 1.51562 52.5476 1.8125 52.5476C2.01562 52.5476 2.1849 52.6205 2.32031 52.7664C2.46094 52.907 2.53125 53.0815 2.53125 53.2898C2.53125 53.3367 2.52344 53.4226 2.50781 53.5476C2.48177 53.7091 2.46354 53.8575 2.45312 53.9929C2.90104 53.6856 3.33333 53.4565 3.75 53.3054C4.16667 53.1492 4.5651 53.071 4.94531 53.071C6.01302 53.071 6.79427 53.545 7.28906 54.4929C7.67969 55.2429 7.875 56.2351 7.875 57.4695C7.875 58.5945 7.57292 59.5216 6.96875 60.2507C6.32812 61.0216 5.47396 61.407 4.40625 61.407ZM4.94531 54.6335C4.46615 54.6335 4.03385 54.7403 3.64844 54.9539C3.3724 55.1049 3.02344 55.3809 2.60156 55.782C2.66927 56.9643 2.70312 58.2065 2.70312 59.5085C3.27083 59.7273 3.83854 59.8367 4.40625 59.8367C5.05729 59.8367 5.55469 59.5945 5.89844 59.1101C6.19531 58.6882 6.34375 58.1414 6.34375 57.4695C6.34375 56.5216 6.22656 55.8132 5.99219 55.3445C5.76302 54.8705 5.41406 54.6335 4.94531 54.6335ZM15.7266 55.3601C15.6901 56.0111 15.4297 56.3367 14.9453 56.3367C14.4974 56.3367 14.2734 56.0789 14.2734 55.5632C14.2734 55.4643 14.2656 55.282 14.25 55.0164L14.2266 54.3601C13.4036 54.4591 12.7448 54.6908 12.25 55.0554C11.7865 55.394 11.401 55.9044 11.0938 56.5867L11.1094 60.8679C11.1094 61.394 10.8516 61.657 10.3359 61.657C9.8776 61.657 9.64844 61.394 9.64844 60.8679V55.3835C9.64844 55.2117 9.65365 54.9539 9.66406 54.6101C9.67969 54.2664 9.6875 54.0085 9.6875 53.8367C9.6875 53.3106 9.91667 53.0476 10.375 53.0476C10.8854 53.0476 11.1432 53.4799 11.1484 54.3445C12.1484 53.3809 13.2578 52.8992 14.4766 52.8992C14.8984 52.8992 15.2135 53.058 15.4219 53.3757C15.6302 53.6934 15.7344 54.1726 15.7344 54.8132C15.7344 55.0841 15.7318 55.2664 15.7266 55.3601ZM20.2656 61.5945C19.3906 61.5945 18.638 61.2716 18.0078 60.6257C17.3047 59.907 16.9349 58.9408 16.8984 57.7273C16.8672 56.5502 17.1641 55.5138 17.7891 54.6179C18.5182 53.5606 19.5339 53.032 20.8359 53.032C21.8776 53.032 22.6667 53.5085 23.2031 54.4617C23.6302 55.2325 23.8359 56.1596 23.8203 57.2429C23.8047 58.3992 23.5026 59.3861 22.9141 60.2039C22.2474 61.1309 21.3646 61.5945 20.2656 61.5945ZM20.7344 54.6179C19.9688 54.6127 19.3724 54.9773 18.9453 55.7117C18.6068 56.3002 18.4375 56.9721 18.4375 57.7273C18.4375 58.4825 18.6432 59.071 19.0547 59.4929C19.3984 59.8419 19.8021 60.0164 20.2656 60.0164C20.8073 60.0164 21.2734 59.8184 21.6641 59.4226C22.1068 58.9851 22.3411 58.394 22.3672 57.6492C22.4401 55.6335 21.8958 54.6231 20.7344 54.6179ZM31.0078 50.1492C29.7474 50.1492 29.0417 51.0242 28.8906 52.7742L28.8672 53.2585C29.7526 53.196 30.3255 53.1648 30.5859 53.1648C31.4141 53.1648 31.8281 53.4252 31.8281 53.946C31.8281 54.3263 31.625 54.5528 31.2188 54.6257C31.0417 54.657 30.8333 54.67 30.5938 54.6648C30.3594 54.6544 29.7604 54.6882 28.7969 54.7664L28.7344 56.5476C28.7344 56.8705 28.7448 57.3549 28.7656 58.0007C28.7865 58.6466 28.7969 59.1283 28.7969 59.446C28.7969 60.4356 28.7396 61.2065 28.625 61.7585C28.5365 62.1752 28.2943 62.3835 27.8984 62.3835C27.6849 62.3835 27.5026 62.3132 27.3516 62.1726C27.2005 62.0372 27.125 61.8653 27.125 61.657C27.125 61.6153 27.1302 61.5632 27.1406 61.5007C27.25 60.8236 27.3047 60.0867 27.3047 59.2898L27.2812 57.157V54.8914C26.6302 54.9434 26.2188 54.9695 26.0469 54.9695C25.5208 54.9695 25.2578 54.7169 25.2578 54.2117C25.2578 53.696 25.7135 53.4252 26.625 53.3992L27.375 53.3757C27.3906 53.0841 27.4297 52.6882 27.4922 52.1882C27.6276 51.032 27.9193 50.1804 28.3672 49.6335C28.9089 48.9721 29.7552 48.6414 30.9062 48.6414C31.651 48.6414 32.0234 48.894 32.0234 49.3992C32.0234 49.8992 31.6849 50.1492 31.0078 50.1492ZM35.3906 51.2429C35.1406 51.2429 34.9245 51.1544 34.7422 50.9773C34.5599 50.8002 34.4688 50.5867 34.4688 50.3367C34.4688 50.0867 34.5599 49.8731 34.7422 49.696C34.9245 49.519 35.1406 49.4304 35.3906 49.4304C35.6406 49.4304 35.8542 49.519 36.0312 49.696C36.2135 49.8731 36.3047 50.0867 36.3047 50.3367C36.3047 50.5867 36.2135 50.8002 36.0312 50.9773C35.8542 51.1544 35.6406 51.2429 35.3906 51.2429ZM35.7422 57.5867C35.7422 57.8992 35.75 58.3679 35.7656 58.9929C35.7865 59.6127 35.7969 60.0789 35.7969 60.3914C35.7969 60.6205 35.7266 60.808 35.5859 60.9539C35.4453 61.0997 35.2604 61.1726 35.0312 61.1726C34.8073 61.1726 34.6224 61.0997 34.4766 60.9539C34.3359 60.808 34.2656 60.6205 34.2656 60.3914C34.2656 60.0789 34.2552 59.6127 34.2344 58.9929C34.2188 58.3679 34.2109 57.8992 34.2109 57.5867C34.2109 57.0971 34.237 56.4877 34.2891 55.7585C34.3411 55.0242 34.3672 54.4122 34.3672 53.9226C34.3672 53.6882 34.4375 53.4981 34.5781 53.3523C34.724 53.2065 34.9089 53.1335 35.1328 53.1335C35.3568 53.1335 35.5391 53.2065 35.6797 53.3523C35.8255 53.4981 35.8984 53.6882 35.8984 53.9226C35.8984 54.4122 35.8724 55.0242 35.8203 55.7585C35.7682 56.4877 35.7422 57.0971 35.7422 57.5867ZM40.3672 54.9929L40.25 58.8757C40.25 59.2872 40.2292 59.8914 40.1875 60.6882C40.1354 61.2091 39.8802 61.4695 39.4219 61.4695C38.9115 61.4695 38.6562 61.2039 38.6562 60.6726C38.6562 60.0424 38.6849 59.0971 38.7422 57.8367C38.7995 56.571 38.8281 55.6231 38.8281 54.9929C38.8281 54.17 38.8411 53.2299 38.8672 52.1726C38.8932 51.1101 38.9062 50.1674 38.9062 49.3445C38.9062 48.8236 39.1615 48.5632 39.6719 48.5632C40.1875 48.5632 40.4453 48.8236 40.4453 49.3445C40.4453 50.1674 40.4323 51.1101 40.4062 52.1726C40.3802 53.2299 40.3672 54.17 40.3672 54.9929ZM46.4219 61.4929C45.2448 61.4929 44.2917 61.1986 43.5625 60.6101C42.7656 59.9591 42.3672 59.0476 42.3672 57.8757C42.3672 56.5216 42.6953 55.3861 43.3516 54.4695C44.0651 53.4695 45.0182 52.9695 46.2109 52.9695C47.0755 52.9695 47.7812 53.1153 48.3281 53.407C49 53.7664 49.3359 54.3184 49.3359 55.0632C49.3359 55.5841 49.0417 56.058 48.4531 56.4851C48.1927 56.6726 47.6406 56.9643 46.7969 57.3601L43.8125 58.7742C44.1042 59.2065 44.4661 59.532 44.8984 59.7507C45.3359 59.9695 45.8438 60.0789 46.4219 60.0789C46.7812 60.0789 47.2031 60.0111 47.6875 59.8757C48.3021 59.7039 48.6979 59.4799 48.875 59.2039C49.0521 58.9226 49.2422 58.782 49.4453 58.782C49.6276 58.782 49.7891 58.8523 49.9297 58.9929C50.0755 59.1283 50.1484 59.2872 50.1484 59.4695C50.1484 60.0476 49.6823 60.545 48.75 60.9617C47.9531 61.3158 47.1771 61.4929 46.4219 61.4929ZM46.2109 54.3757C45.5755 54.3757 45.0469 54.6231 44.625 55.1179C44.2031 55.6075 43.888 56.3471 43.6797 57.3367L46.0781 56.196C47.0208 55.7377 47.6927 55.3393 48.0938 55.0007C47.6458 54.5841 47.0182 54.3757 46.2109 54.3757Z" fill="black"/>
</svg>
