<svg width="50" height="63" viewBox="0 0 50 63" fill="none" xmlns="http://www.w3.org/2000/svg">
<path d="M23.9581 1.36302C20.3231 0.913749 16.9455 0.678275 13.6757 2.51499C11.7477 3.59803 9.45616 5.0152 8.06514 6.78157C5.36449 10.211 4.66572 15.3029 4.57722 19.5066C4.50133 23.1115 4.84012 27.1345 6.66784 30.3331C8.01465 32.69 10.3358 34.0751 12.7797 35.1543C16.4916 36.7933 20.2518 37.8577 24.3528 37.4476C25.136 37.3693 25.9892 37.078 26.7527 36.8823C27.7557 36.6251 28.8022 36.6333 29.8033 36.3916C31.919 35.8809 33.4129 34.3829 35.0512 33.085C40.2308 28.9817 41.8829 22.2563 41.6111 15.8694C41.5378 14.1475 41.2881 11.6871 40.3631 10.1735C39.3869 8.57601 37.6236 7.31421 36.0539 6.35491C34.4739 5.38936 32.587 4.7797 30.8273 4.20029C29.504 3.76455 28.1191 3.13676 26.7527 2.88832C26.2435 2.79573 23.9928 1.48577 23.7661 1.93901M37.0138 32.4663C39.2233 34.461 41.8881 35.8655 44.075 37.8323M44.075 37.8323C44.286 38.022 44.4925 38.217 44.6937 38.4182C44.8498 38.5743 45.6939 39.3048 45.4617 39.4209C44.1079 40.0977 43.5813 38.9334 42.3044 38.2369C41.3086 37.6937 40.4685 36.881 39.7018 36.1143C38.8809 35.2934 37.8037 35.1607 36.9179 34.4716C36.6437 34.2584 36.3712 33.7436 36.2069 33.4332L36.2032 33.4263C36.1019 33.235 35.5202 32.4672 36.1499 32.957C37.2973 33.8494 38.0679 34.9325 39.5525 35.4956C40.6178 35.8997 41.8287 36.7839 42.8697 37.3622C43.2425 37.5693 43.6865 37.6698 44.075 37.8323ZM44.075 37.8323C44.2117 37.8895 44.3416 37.9544 44.459 38.0342C44.8102 38.273 45.0693 38.606 45.4617 38.8022" stroke="black" stroke-width="0.888373" stroke-linecap="round"/>
<path d="M6.35938 51.1179C6.07292 51.1179 5.8724 51.0216 5.75781 50.8289C5.67969 50.6934 5.61198 50.4122 5.55469 49.9851C5.16406 50.0841 4.5625 50.2664 3.75 50.532C2.91146 50.8653 2.48958 51.2768 2.48438 51.7664C2.64062 51.8236 2.79427 51.8653 2.94531 51.8914C4.14323 52.1049 5.03385 52.3992 5.61719 52.7742C6.46615 53.321 6.89062 54.1127 6.89062 55.1492C6.89062 55.9981 6.52344 56.6388 5.78906 57.071C5.17969 57.4252 4.40885 57.6023 3.47656 57.6023C2.79427 57.6023 2.14323 57.4877 1.52344 57.2585C0.721354 56.9669 0.320312 56.5606 0.320312 56.0398C0.320312 55.8315 0.401042 55.6492 0.5625 55.4929C0.729167 55.3367 0.916667 55.2585 1.125 55.2585C1.28646 55.2585 1.49479 55.3835 1.75 55.6335C1.875 55.7533 2.15625 55.8523 2.59375 55.9304C2.94271 55.9929 3.23698 56.0242 3.47656 56.0242C3.91406 56.0242 4.29948 55.9721 4.63281 55.8679C5.11719 55.7169 5.35938 55.4773 5.35938 55.1492C5.35938 54.4408 4.86458 53.9617 3.875 53.7117L3.0625 53.532C2.36979 53.3809 1.8776 53.2039 1.58594 53.0007C1.16406 52.7091 0.953125 52.269 0.953125 51.6804C0.953125 50.5919 1.46615 49.8158 2.49219 49.3523C2.80469 49.2117 3.30469 49.045 3.99219 48.8523C4.67969 48.6544 5.17188 48.4877 5.46875 48.3523C5.68229 48.2585 5.91406 48.2117 6.16406 48.2117C6.38802 48.2117 6.57031 48.2846 6.71094 48.4304C6.85677 48.5763 6.92969 48.7664 6.92969 49.0007C6.92969 49.1518 6.96094 49.3731 7.02344 49.6648C7.09115 49.9565 7.125 50.1778 7.125 50.3289C7.125 50.5632 7.05208 50.7533 6.90625 50.8992C6.76562 51.045 6.58333 51.1179 6.35938 51.1179ZM12.5312 57.4929C11.3542 57.4929 10.401 57.1986 9.67188 56.6101C8.875 55.9591 8.47656 55.0476 8.47656 53.8757C8.47656 52.5216 8.80469 51.3861 9.46094 50.4695C10.1745 49.4695 11.1276 48.9695 12.3203 48.9695C13.1849 48.9695 13.8906 49.1153 14.4375 49.407C15.1094 49.7664 15.4453 50.3184 15.4453 51.0632C15.4453 51.5841 15.151 52.058 14.5625 52.4851C14.3021 52.6726 13.75 52.9643 12.9062 53.3601L9.92188 54.7742C10.2135 55.2065 10.5755 55.532 11.0078 55.7507C11.4453 55.9695 11.9531 56.0789 12.5312 56.0789C12.8906 56.0789 13.3125 56.0111 13.7969 55.8757C14.4115 55.7039 14.8073 55.4799 14.9844 55.2039C15.1615 54.9226 15.3516 54.782 15.5547 54.782C15.737 54.782 15.8984 54.8523 16.0391 54.9929C16.1849 55.1283 16.2578 55.2872 16.2578 55.4695C16.2578 56.0476 15.7917 56.545 14.8594 56.9617C14.0625 57.3158 13.2865 57.4929 12.5312 57.4929ZM12.3203 50.3757C11.6849 50.3757 11.1562 50.6231 10.7344 51.1179C10.3125 51.6075 9.9974 52.3471 9.78906 53.3367L12.1875 52.196C13.1302 51.7377 13.8021 51.3393 14.2031 51.0007C13.7552 50.5841 13.1276 50.3757 12.3203 50.3757ZM23.75 57.6492C23.651 57.6492 23.4714 57.5346 23.2109 57.3054C22.9766 57.0919 22.8021 56.9018 22.6875 56.7351C22.1875 57.0059 21.7474 57.2091 21.3672 57.3445C20.987 57.4851 20.6693 57.5554 20.4141 57.5554C19.1953 57.5554 18.3073 57.2117 17.75 56.5242C17.224 55.8783 16.9609 54.8888 16.9609 53.5554C16.9609 52.295 17.3932 51.2169 18.2578 50.321C19.1276 49.4252 20.1641 48.9773 21.3672 48.9773C21.8203 48.9773 22.3281 49.0945 22.8906 49.3289C23.599 49.6205 23.9531 49.9721 23.9531 50.3835C23.9531 50.5242 23.901 50.6492 23.7969 50.7585C23.7448 50.9565 23.7031 51.282 23.6719 51.7351C23.6458 52.1882 23.6302 52.769 23.625 53.4773C23.6198 54.1231 23.6641 54.6335 23.7578 55.0085C23.8099 55.2377 23.974 55.696 24.25 56.3835C24.2865 56.4773 24.3464 56.6153 24.4297 56.7976L24.4766 56.9304C24.4766 57.1388 24.4036 57.3106 24.2578 57.446C24.112 57.5815 23.9427 57.6492 23.75 57.6492ZM22.125 52.2195C22.125 51.9955 22.138 51.7533 22.1641 51.4929C22.1953 51.2273 22.2396 50.946 22.2969 50.6492C22.1042 50.5502 21.9375 50.4773 21.7969 50.4304C21.6615 50.3835 21.5521 50.3601 21.4688 50.3601C20.6615 50.3601 19.9635 50.6908 19.375 51.3523C18.7917 52.0085 18.5 52.7664 18.5 53.6257C18.5 54.4799 18.651 55.1205 18.9531 55.5476C19.2552 55.9747 19.7083 56.1882 20.3125 56.1882C20.8125 56.1882 21.237 56.0971 21.5859 55.9148C21.7734 55.8158 22.0365 55.6179 22.375 55.321C22.2083 53.9408 22.125 52.907 22.125 52.2195ZM31.9141 51.3601C31.8776 52.0111 31.6172 52.3367 31.1328 52.3367C30.6849 52.3367 30.4609 52.0789 30.4609 51.5632C30.4609 51.4643 30.4531 51.282 30.4375 51.0164L30.4141 50.3601C29.5911 50.4591 28.9323 50.6908 28.4375 51.0554C27.974 51.394 27.5885 51.9044 27.2812 52.5867L27.2969 56.8679C27.2969 57.394 27.0391 57.657 26.5234 57.657C26.0651 57.657 25.8359 57.394 25.8359 56.8679V51.3835C25.8359 51.2117 25.8411 50.9539 25.8516 50.6101C25.8672 50.2664 25.875 50.0085 25.875 49.8367C25.875 49.3106 26.1042 49.0476 26.5625 49.0476C27.0729 49.0476 27.3307 49.4799 27.3359 50.3445C28.3359 49.3809 29.4453 48.8992 30.6641 48.8992C31.0859 48.8992 31.401 49.058 31.6094 49.3757C31.8177 49.6934 31.9219 50.1726 31.9219 50.8132C31.9219 51.0841 31.9193 51.2664 31.9141 51.3601ZM37.0547 57.6257C35.987 57.6257 35.0964 57.3028 34.3828 56.657C33.6328 55.9799 33.2578 55.0867 33.2578 53.9773C33.2578 52.92 33.6094 51.8289 34.3125 50.7039C35.0938 49.4539 35.974 48.8289 36.9531 48.8289C37.4635 48.8289 38.0339 48.9486 38.6641 49.1882C39.4609 49.4955 39.8594 49.8705 39.8594 50.3132C39.8594 50.5111 39.7943 50.6882 39.6641 50.8445C39.5339 50.9955 39.3724 51.071 39.1797 51.071C39.0286 51.071 38.8958 51.0268 38.7812 50.9382C38.6719 50.8445 38.5651 50.7533 38.4609 50.6648C38.1536 50.42 37.651 50.2976 36.9531 50.2976C36.4219 50.2976 35.8958 50.7716 35.375 51.7195C34.901 52.5893 34.6641 53.3419 34.6641 53.9773C34.6641 54.6648 34.8984 55.2065 35.3672 55.6023C35.8047 55.9721 36.3672 56.157 37.0547 56.157C37.3672 56.157 37.7005 56.0736 38.0547 55.907L38.9609 55.4226C39.1172 55.3393 39.2292 55.2976 39.2969 55.2976C39.4896 55.2976 39.6562 55.3757 39.7969 55.532C39.9375 55.683 40.0078 55.8575 40.0078 56.0554C40.0078 56.4356 39.6068 56.8028 38.8047 57.157C38.1016 57.4695 37.5182 57.6257 37.0547 57.6257ZM48.2812 57.6179C47.9115 57.6179 47.6693 57.42 47.5547 57.0242C47.4349 56.5971 47.3255 55.9903 47.2266 55.2039C47.1328 54.4486 47.0859 53.8289 47.0859 53.3445C47.0859 53.2091 47.0911 53.0033 47.1016 52.7273C47.1172 52.4513 47.125 52.2455 47.125 52.1101C47.125 51.1309 46.8802 50.6414 46.3906 50.6414C45.7292 50.6414 45.138 50.9408 44.6172 51.5398C44.3516 51.8471 43.987 52.433 43.5234 53.2976C43.5234 55.282 43.4401 56.4565 43.2734 56.821C43.1276 57.144 42.901 57.3054 42.5938 57.3054C42.3802 57.3054 42.1927 57.2325 42.0312 57.0867C41.8698 56.9408 41.7891 56.7638 41.7891 56.5554C41.7891 56.4825 41.8125 56.3679 41.8594 56.2117C41.901 56.0815 41.9297 55.7013 41.9453 55.071L41.9688 53.9148L41.9922 48.1726C42.0286 47.5268 42.0469 47.0919 42.0469 46.8679C42.0469 46.6023 42.0208 46.3523 41.9688 46.1179C41.9219 45.8783 41.8984 45.6309 41.8984 45.3757C41.8984 45.157 41.974 44.9773 42.125 44.8367C42.276 44.6908 42.4609 44.6179 42.6797 44.6179C43.1068 44.6179 43.3568 44.8471 43.4297 45.3054C43.513 45.8106 43.5547 46.2664 43.5547 46.6726C43.5547 47.2195 43.5365 47.7898 43.5 48.3835C43.4688 48.9513 43.4557 49.5216 43.4609 50.0945L43.4688 50.782C43.8958 50.2091 44.3516 49.782 44.8359 49.5007C45.3255 49.2143 45.8438 49.071 46.3906 49.071C47.2552 49.071 47.849 49.3523 48.1719 49.9148C48.401 50.3106 48.5312 50.9773 48.5625 51.9148L48.625 53.407L48.7812 55.032C48.8542 55.6414 48.9427 56.1778 49.0469 56.6414C49.0677 56.7299 49.0781 56.8054 49.0781 56.8679C49.0781 57.0815 49 57.2585 48.8438 57.3992C48.6875 57.545 48.5 57.6179 48.2812 57.6179Z" fill="black"/>
</svg>
