<svg width="166" height="182" viewBox="0 0 166 182" fill="none" xmlns="http://www.w3.org/2000/svg">
<path d="M41.0939 73.8635C48.7055 70.2158 51.6617 72.7744 56.3107 79.5278C63.1886 82.1708 61.3904 84.0814 58.4113 87.5298C62.2207 92.6947 59.9459 93.6611 53.9645 94.5428C54.8402 103.211 53.0879 105.785 43.5987 103.893C37.4014 106.35 34.0832 106.661 29.0834 100.926C24.2879 104.755 21.3605 105.74 15.0322 102.095C7.91373 104.596 6.6088 103.097 4.19043 99.7576C1.01678 95.3758 5.03728 91.231 12.1314 88.9684C11.428 85.3676 11.6245 83.5412 18.4698 82.4049C19.0232 79.3985 19.8103 78.6689 22.2963 79.5278C23.7604 75.0958 24.195 72.2717 31.1871 72.6946C31.3847 69.5164 32.4954 69.5693 35.0502 70.7166C39.5751 69.4171 40.5418 70.5217 41.0939 73.8635Z" fill="#EBF5FF"/>
<path fill-rule="evenodd" clip-rule="evenodd" d="M40.6255 105.51C40.0774 105.925 39.4563 106.256 38.7687 106.485C36.4935 107.244 33.9726 106.727 31.8586 105.299C31.3389 106.354 30.5879 107.342 29.608 108.199C25.6259 111.678 19.3709 111.663 15.6371 108.164C11.9034 104.666 12.1047 99.0093 16.0868 95.5299C19.2808 92.7392 23.937 92.1968 27.5816 93.8966C28.0645 92.4082 28.9594 91.1399 30.1988 90.2823C30.1636 90.2044 30.1297 90.1256 30.0972 90.0458C28.9137 87.1405 29.9897 84.1065 32.5005 83.2692C33.7189 82.8628 35.0514 83.0484 36.2355 83.6792C37.4422 79.0602 42.6241 76.1395 47.9507 77.1294C52.576 77.989 55.8165 81.5195 55.9983 85.4954C56.09 85.5088 56.1818 85.524 56.2738 85.5411C59.182 86.0815 61.2046 88.3301 61.2527 90.8393C61.6035 91.0492 61.934 91.2964 62.2376 91.5808C64.5457 93.7435 64.4213 97.2403 61.9596 99.3911C60.7455 100.452 59.1897 100.987 57.6476 100.998C57.2377 102.719 56.2687 104.363 54.7491 105.691C50.767 109.17 44.5121 109.155 40.7783 105.657C40.7266 105.608 40.6757 105.559 40.6255 105.51Z" fill="#E0EBF7"/>
<path d="M114.578 43.9677C106.898 42.261 101.185 45.6269 99.2888 47.5232C112.373 48.661 122.993 59.138 126.667 64.2343C128.373 56.5543 124.059 49.8936 121.689 47.5232C142.169 16.8033 147.763 6.27877 148 4.85652C146.578 -0.832369 142.311 -0.121258 140.533 0.234298C139.111 0.518742 122.637 29.5084 114.578 43.9677Z" fill="#A65F3E"/>
<path d="M110.311 97.3009C72.7645 126.883 45.1259 101.093 36 84.5009C56.6222 80.2342 54.8444 78.4565 68 63.8787C81.1556 49.3009 89.3333 51.0787 92.8889 50.7231C96.4445 50.3676 131.289 56.7676 128.089 84.5009C125.529 106.688 108.533 111.049 100.356 110.456C107.751 105.905 110.074 99.7898 110.311 97.3009Z" fill="url(#paint0_linear_271_1484)"/>
<path d="M105.71 100.057C88.7581 111.839 74.0108 112.156 62.3677 107.659C53.2163 104.124 45.9377 97.5975 40.9958 91.2203C51.1096 101.5 63.4337 105.369 75.2062 105.812C86.752 106.247 97.7774 103.388 105.71 100.057Z" fill="#E2A610" stroke="#E2A610" stroke-linecap="round"/>
<path d="M137.065 90.6844C135.451 86.2847 146.144 82.1798 148.053 87.8154C150.46 87.8743 155.184 89.349 154.819 94.7772C158.019 95.237 163.949 97.8931 162.06 104.839C161.479 106.374 158.401 109.215 150.73 108.293C149.339 109.146 145.599 110.275 141.768 107.968C139.601 108.71 134.648 109.484 132.169 106.641C127.679 109.904 121.1 108.555 118.372 107.473C112.442 107.278 116.15 103.524 118.148 103.746C118.699 99.5017 121.238 99.9453 125.174 99.9854C124.271 98.0707 126.543 97.4272 126.543 97.4272C125.829 96.6734 127.135 94.2564 129.739 94.409C128.354 88.6333 136.004 88.6302 137.065 90.6844Z" fill="#EBF5FF"/>
<path d="M10.0395 170C8.5462 170 7.3462 169.88 6.43953 169.64C5.53287 169.4 4.8262 169.067 4.31953 168.64C3.83953 168.187 3.5062 167.64 3.31953 167C3.15953 166.36 3.03953 165.64 2.95953 164.84C2.87953 163.907 2.81287 162.68 2.75953 161.16C2.73287 159.613 2.71953 158.013 2.71953 156.36C2.71953 155.56 2.71953 154.72 2.71953 153.84C2.7462 152.933 2.75953 152.053 2.75953 151.2C2.7862 150.32 2.81287 149.507 2.83953 148.76C2.8662 148.013 2.9062 147.373 2.95953 146.84C3.03953 146.013 3.17287 145.267 3.35953 144.6C3.5462 143.933 3.89287 143.36 4.39953 142.88C4.93287 142.4 5.6662 142.04 6.59953 141.8C7.55953 141.533 8.8262 141.4 10.3995 141.4C13.9729 141.4 16.6395 142.067 18.3995 143.4C20.1862 144.707 21.0795 146.573 21.0795 149C21.0795 150.253 20.7995 151.413 20.2395 152.48C19.7062 153.547 18.7729 154.347 17.4395 154.88C18.1862 155.013 18.8662 155.293 19.4795 155.72C20.0929 156.147 20.6129 156.667 21.0395 157.28C21.4929 157.867 21.8262 158.533 22.0395 159.28C22.2795 160 22.3995 160.733 22.3995 161.48C22.3995 162.44 22.1995 163.427 21.7995 164.44C21.3995 165.427 20.7195 166.333 19.7595 167.16C18.7995 167.987 17.5195 168.667 15.9195 169.2C14.3462 169.733 12.3862 170 10.0395 170ZM18.3995 161.36C18.3995 160.4 18.1729 159.627 17.7195 159.04C17.2929 158.453 16.7329 158.013 16.0395 157.72C15.3462 157.4 14.5729 157.187 13.7195 157.08C12.8662 156.973 12.0129 156.92 11.1595 156.92C10.4929 156.92 9.79953 156.92 9.07953 156.92C8.35953 156.92 7.69287 156.933 7.07953 156.96C7.05287 157.52 7.0262 158.093 6.99953 158.68C6.97287 159.267 6.9462 159.827 6.91953 160.36C6.91953 160.867 6.91953 161.32 6.91953 161.72C6.91953 162.093 6.91953 162.36 6.91953 162.52C6.91953 163.24 6.97287 163.84 7.07953 164.32C7.1862 164.8 7.3862 165.187 7.67953 165.48C7.97287 165.773 8.3862 165.987 8.91953 166.12C9.47953 166.227 10.1862 166.28 11.0395 166.28C13.3862 166.28 15.1995 165.867 16.4795 165.04C17.7595 164.213 18.3995 162.987 18.3995 161.36ZM10.9995 145.2C10.1195 145.2 9.39953 145.28 8.83953 145.44C8.3062 145.573 7.89287 145.76 7.59953 146C7.33287 146.24 7.1462 146.533 7.03953 146.88C6.95953 147.227 6.91953 147.6 6.91953 148V153.6C7.29287 153.627 7.67953 153.64 8.07953 153.64C8.5062 153.64 8.9062 153.64 9.27953 153.64C10.2395 153.64 11.1729 153.573 12.0795 153.44C13.0129 153.307 13.8529 153.08 14.5995 152.76C15.3462 152.44 15.9462 152 16.3995 151.44C16.8529 150.88 17.0795 150.16 17.0795 149.28C17.0795 148.08 16.5862 147.107 15.5995 146.36C14.6395 145.587 13.1062 145.2 10.9995 145.2ZM25.9408 167.56C25.8341 166.627 25.7675 165.493 25.7408 164.16C25.7141 162.827 25.7008 161.213 25.7008 159.32C25.7008 157.453 25.7008 155.947 25.7008 154.8C25.7275 153.653 25.8075 152.64 25.9408 151.76C26.0741 150.667 26.2741 149.96 26.5408 149.64C26.8341 149.32 27.2075 149.16 27.6608 149.16C27.9808 149.16 28.2608 149.187 28.5008 149.24C28.7675 149.293 28.9941 149.413 29.1808 149.6C29.3941 149.76 29.5541 150 29.6608 150.32C29.7675 150.64 29.8208 151.08 29.8208 151.64C29.8208 151.747 29.8341 151.853 29.8608 151.96C29.8608 152.067 29.8608 152.187 29.8608 152.32C29.8875 152.427 29.9008 152.56 29.9008 152.72C30.6208 151.813 31.4341 151.04 32.3408 150.4C33.2741 149.76 34.3275 149.44 35.5008 149.44C37.0741 149.44 37.8608 150.093 37.8608 151.4C37.8608 151.88 37.7541 152.28 37.5408 152.6C37.3541 152.92 37.0741 153.187 36.7008 153.4C36.3541 153.587 35.9408 153.733 35.4608 153.84C35.0075 153.947 34.5008 154.053 33.9408 154.16C33.0875 154.32 32.2875 154.627 31.5408 155.08C30.7941 155.507 30.2875 156.053 30.0208 156.72C30.0208 157.227 30.0208 157.6 30.0208 157.84C30.0475 158.08 30.0608 158.28 30.0608 158.44C30.0875 158.6 30.1008 158.773 30.1008 158.96C30.1008 159.147 30.1008 159.44 30.1008 159.84C30.1008 161.2 30.0741 162.48 30.0208 163.68C29.9675 164.853 29.9141 166.133 29.8608 167.52C29.8341 168.16 29.7541 168.653 29.6208 169C29.5141 169.347 29.3675 169.613 29.1808 169.8C29.0208 169.987 28.8341 170.093 28.6208 170.12C28.4075 170.173 28.1941 170.2 27.9808 170.2C27.2341 170.2 26.7275 170.04 26.4608 169.72C26.2208 169.373 26.0475 168.653 25.9408 167.56ZM49.173 149.72C50.693 149.72 52.053 149.96 53.253 150.44C54.453 150.893 55.4663 151.547 56.293 152.4C57.1463 153.253 57.7996 154.293 58.253 155.52C58.7063 156.747 58.933 158.12 58.933 159.64C58.933 161.32 58.6663 162.827 58.133 164.16C57.6263 165.493 56.9063 166.627 55.973 167.56C55.0663 168.493 53.973 169.213 52.693 169.72C51.4396 170.227 50.0663 170.48 48.573 170.48C46.9463 170.48 45.5063 170.2 44.253 169.64C43.0263 169.08 41.9863 168.32 41.133 167.36C40.3063 166.4 39.6796 165.293 39.253 164.04C38.8263 162.787 38.613 161.467 38.613 160.08C38.613 158.56 38.853 157.173 39.333 155.92C39.8396 154.64 40.5463 153.547 41.453 152.64C42.3863 151.707 43.5063 150.987 44.813 150.48C46.1196 149.973 47.573 149.72 49.173 149.72ZM48.733 166.8C49.8263 166.8 50.7596 166.613 51.533 166.24C52.3063 165.84 52.933 165.32 53.413 164.68C53.9196 164.04 54.2796 163.32 54.493 162.52C54.733 161.693 54.853 160.84 54.853 159.96C54.853 159.053 54.733 158.213 54.493 157.44C54.2796 156.64 53.933 155.947 53.453 155.36C52.9996 154.773 52.3996 154.32 51.653 154C50.933 153.653 50.0663 153.48 49.053 153.48C48.013 153.48 47.1063 153.653 46.333 154C45.5596 154.347 44.9063 154.827 44.373 155.44C43.8663 156.027 43.4796 156.733 43.213 157.56C42.9463 158.387 42.813 159.28 42.813 160.24C42.813 162.187 43.3063 163.773 44.293 165C45.3063 166.2 46.7863 166.8 48.733 166.8ZM71.8417 149.72C73.3617 149.72 74.7217 149.96 75.9217 150.44C77.1217 150.893 78.1351 151.547 78.9617 152.4C79.8151 153.253 80.4684 154.293 80.9217 155.52C81.3751 156.747 81.6017 158.12 81.6017 159.64C81.6017 161.32 81.3351 162.827 80.8017 164.16C80.2951 165.493 79.5751 166.627 78.6417 167.56C77.7351 168.493 76.6417 169.213 75.3617 169.72C74.1084 170.227 72.7351 170.48 71.2417 170.48C69.6151 170.48 68.1751 170.2 66.9217 169.64C65.6951 169.08 64.6551 168.32 63.8017 167.36C62.9751 166.4 62.3484 165.293 61.9217 164.04C61.4951 162.787 61.2817 161.467 61.2817 160.08C61.2817 158.56 61.5217 157.173 62.0017 155.92C62.5084 154.64 63.2151 153.547 64.1217 152.64C65.0551 151.707 66.1751 150.987 67.4817 150.48C68.7884 149.973 70.2417 149.72 71.8417 149.72ZM71.4017 166.8C72.4951 166.8 73.4284 166.613 74.2017 166.24C74.9751 165.84 75.6017 165.32 76.0817 164.68C76.5884 164.04 76.9484 163.32 77.1617 162.52C77.4017 161.693 77.5217 160.84 77.5217 159.96C77.5217 159.053 77.4017 158.213 77.1617 157.44C76.9484 156.64 76.6017 155.947 76.1217 155.36C75.6684 154.773 75.0684 154.32 74.3217 154C73.6017 153.653 72.7351 153.48 71.7217 153.48C70.6817 153.48 69.7751 153.653 69.0017 154C68.2284 154.347 67.5751 154.827 67.0417 155.44C66.5351 156.027 66.1484 156.733 65.8817 157.56C65.6151 158.387 65.4817 159.28 65.4817 160.24C65.4817 162.187 65.9751 163.773 66.9617 165C67.9751 166.2 69.4551 166.8 71.4017 166.8ZM111.84 168.8C111.68 168.347 111.573 167.84 111.52 167.28C111.493 166.72 111.48 166.027 111.48 165.2C111.48 164.613 111.48 164.16 111.48 163.84C111.507 163.493 111.52 163.2 111.52 162.96C111.52 162.693 111.52 162.44 111.52 162.2C111.547 161.933 111.56 161.573 111.56 161.12C111.56 160.187 111.533 159.253 111.48 158.32C111.453 157.36 111.32 156.507 111.08 155.76C110.84 154.987 110.467 154.36 109.96 153.88C109.453 153.4 108.72 153.16 107.76 153.16C106.133 153.16 104.867 153.933 103.96 155.48C103.053 157.027 102.507 159.493 102.32 162.88C102.267 163.947 102.24 164.92 102.24 165.8C102.24 166.68 102.187 167.44 102.08 168.08C101.973 168.693 101.773 169.173 101.48 169.52C101.213 169.867 100.76 170.04 100.12 170.04C99.5332 170.04 99.1065 169.893 98.8399 169.6C98.5732 169.28 98.3732 168.813 98.2399 168.2C98.1332 167.587 98.0665 166.84 98.0399 165.96C98.0399 165.08 97.9999 164.053 97.9199 162.88C97.8399 161.6 97.7065 160.373 97.5199 159.2C97.3599 158.027 97.0799 157 96.6799 156.12C96.3065 155.213 95.7865 154.493 95.1198 153.96C94.4799 153.427 93.6532 153.16 92.6399 153.16C91.6799 153.16 90.9332 153.4 90.3999 153.88C89.8932 154.333 89.5199 154.947 89.2799 155.72C89.0398 156.467 88.8932 157.32 88.8399 158.28C88.8132 159.213 88.7999 160.16 88.7999 161.12C88.7999 161.6 88.7999 161.96 88.7999 162.2C88.8265 162.413 88.8399 162.613 88.8399 162.8C88.8399 162.987 88.8399 163.227 88.8399 163.52C88.8665 163.813 88.8799 164.267 88.8799 164.88C88.8799 165.76 88.8532 166.52 88.7999 167.16C88.7732 167.8 88.6799 168.347 88.5199 168.8C88.3332 169.333 88.0799 169.667 87.7598 169.8C87.4399 169.907 87.1465 169.96 86.8799 169.96C86.0532 169.96 85.5199 169.667 85.2798 169.08C85.0398 168.493 84.9065 167.64 84.8799 166.52C84.8799 165.907 84.8665 165.227 84.8398 164.48C84.8398 163.707 84.8398 162.773 84.8398 161.68C84.8398 161.147 84.8398 160.68 84.8398 160.28C84.8398 159.88 84.8398 159.493 84.8398 159.12C84.8665 158.747 84.8799 158.373 84.8799 158C84.9065 157.6 84.9332 157.147 84.9598 156.64C85.0398 155.013 85.3332 153.72 85.8398 152.76C86.3465 151.773 86.9465 151.027 87.6399 150.52C88.3332 150.013 89.0798 149.693 89.8799 149.56C90.6799 149.4 91.4132 149.32 92.0799 149.32C93.5199 149.32 94.7332 149.533 95.7199 149.96C96.7065 150.387 97.5065 150.947 98.1199 151.64C98.7599 152.333 99.2265 153.12 99.5199 154C99.8399 154.88 100.053 155.773 100.16 156.68C100.267 155.8 100.48 154.933 100.8 154.08C101.147 153.2 101.64 152.427 102.28 151.76C102.947 151.067 103.8 150.507 104.84 150.08C105.88 149.653 107.16 149.44 108.68 149.44C109.4 149.44 110.133 149.52 110.88 149.68C111.653 149.813 112.36 150.133 113 150.64C113.64 151.147 114.173 151.88 114.6 152.84C115.053 153.773 115.32 155.04 115.4 156.64C115.427 157.147 115.44 157.6 115.44 158C115.467 158.373 115.48 158.747 115.48 159.12C115.507 159.493 115.52 159.88 115.52 160.28C115.52 160.68 115.52 161.147 115.52 161.68C115.52 162.773 115.507 163.707 115.48 164.48C115.48 165.227 115.48 165.907 115.48 166.52C115.48 167.027 115.453 167.493 115.4 167.92C115.373 168.347 115.293 168.707 115.16 169C115.027 169.293 114.827 169.533 114.56 169.72C114.32 169.88 113.96 169.96 113.48 169.96C113.027 169.96 112.68 169.88 112.44 169.72C112.2 169.533 112 169.227 111.84 168.8ZM120.172 167.52C120.119 166.533 120.066 165.413 120.012 164.16C119.986 162.88 119.972 161.48 119.972 159.96C119.972 158.067 119.986 156.453 120.012 155.12C120.039 153.76 120.106 152.653 120.212 151.8C120.346 150.92 120.546 150.28 120.812 149.88C121.079 149.453 121.452 149.24 121.932 149.24C122.386 149.24 122.786 149.4 123.132 149.72C123.479 150.04 123.679 150.733 123.732 151.8C123.892 154.6 123.972 157.307 123.972 159.92C123.972 161.253 123.946 162.507 123.892 163.68C123.839 164.827 123.786 166.093 123.732 167.48C123.706 168.12 123.639 168.613 123.532 168.96C123.452 169.307 123.332 169.573 123.172 169.76C123.012 169.947 122.826 170.053 122.612 170.08C122.426 170.133 122.199 170.16 121.932 170.16C121.452 170.16 121.052 170 120.732 169.68C120.412 169.333 120.226 168.613 120.172 167.52ZM121.972 142C122.586 142 123.146 142.24 123.652 142.72C124.186 143.2 124.452 143.773 124.452 144.44C124.452 145.08 124.186 145.64 123.652 146.12C123.119 146.573 122.519 146.8 121.852 146.8C121.292 146.8 120.759 146.573 120.252 146.12C119.772 145.64 119.532 145.053 119.532 144.36C119.532 143.72 119.772 143.173 120.252 142.72C120.759 142.24 121.332 142 121.972 142ZM137.856 162.64C136.922 162.64 135.936 162.573 134.896 162.44C133.882 162.28 132.776 161.96 131.576 161.48C131.816 163.107 132.482 164.333 133.576 165.16C134.696 165.987 136.296 166.4 138.376 166.4C139.122 166.4 139.789 166.36 140.376 166.28C140.989 166.173 141.522 166.067 141.976 165.96C142.429 165.827 142.829 165.72 143.176 165.64C143.522 165.533 143.842 165.48 144.136 165.48C144.509 165.48 144.869 165.6 145.216 165.84C145.562 166.053 145.736 166.427 145.736 166.96C145.736 167.627 145.456 168.173 144.896 168.6C144.362 169.027 143.696 169.373 142.896 169.64C142.122 169.88 141.296 170.04 140.416 170.12C139.536 170.227 138.762 170.28 138.096 170.28C136.522 170.28 135.069 170.067 133.736 169.64C132.429 169.213 131.296 168.573 130.336 167.72C129.376 166.84 128.629 165.76 128.096 164.48C127.562 163.2 127.296 161.707 127.296 160C127.296 158.347 127.549 156.88 128.056 155.6C128.589 154.32 129.309 153.24 130.216 152.36C131.122 151.48 132.189 150.813 133.416 150.36C134.669 149.907 136.016 149.68 137.456 149.68C138.576 149.68 139.656 149.827 140.696 150.12C141.762 150.413 142.696 150.853 143.496 151.44C144.322 152.027 144.976 152.773 145.456 153.68C145.962 154.56 146.216 155.6 146.216 156.8C146.216 157.867 146.016 158.773 145.616 159.52C145.216 160.267 144.642 160.867 143.896 161.32C143.176 161.773 142.296 162.107 141.256 162.32C140.242 162.533 139.109 162.64 137.856 162.64ZM137.576 153.36C136.856 153.36 136.162 153.453 135.496 153.64C134.829 153.8 134.216 154.08 133.656 154.48C133.122 154.853 132.669 155.36 132.296 156C131.922 156.613 131.669 157.387 131.536 158.32C132.549 158.773 133.536 159.093 134.496 159.28C135.456 159.44 136.469 159.52 137.536 159.52C139.109 159.52 140.269 159.333 141.016 158.96C141.789 158.56 142.176 157.853 142.176 156.84C142.176 155.907 141.816 155.093 141.096 154.4C140.402 153.707 139.229 153.36 137.576 153.36ZM156.762 149.12C157.322 149.12 158.029 149.173 158.882 149.28C159.735 149.36 160.549 149.533 161.322 149.8C162.095 150.04 162.762 150.387 163.322 150.84C163.882 151.293 164.162 151.867 164.162 152.56C164.162 152.96 164.042 153.307 163.802 153.6C163.589 153.893 163.242 154.04 162.762 154.04C162.415 154.04 162.015 153.987 161.562 153.88C161.135 153.773 160.655 153.653 160.122 153.52C159.615 153.36 159.055 153.227 158.442 153.12C157.855 153.013 157.229 152.96 156.562 152.96C155.442 152.96 154.522 153.133 153.802 153.48C153.109 153.827 152.762 154.373 152.762 155.12C152.762 155.547 152.882 155.907 153.122 156.2C153.389 156.493 153.735 156.76 154.162 157C154.615 157.213 155.135 157.4 155.722 157.56C156.335 157.72 156.975 157.88 157.642 158.04C158.469 158.253 159.282 158.493 160.082 158.76C160.909 159.027 161.642 159.4 162.282 159.88C162.922 160.333 163.442 160.92 163.842 161.64C164.242 162.333 164.442 163.2 164.442 164.24C164.442 166.213 163.695 167.787 162.202 168.96C160.709 170.107 158.509 170.68 155.602 170.68C154.962 170.68 154.202 170.627 153.322 170.52C152.442 170.44 151.615 170.267 150.842 170C150.069 169.76 149.402 169.413 148.842 168.96C148.309 168.48 148.042 167.853 148.042 167.08C148.042 166.547 148.162 166.147 148.402 165.88C148.669 165.587 148.989 165.44 149.362 165.44C149.655 165.44 149.962 165.533 150.282 165.72C150.602 165.907 150.989 166.107 151.442 166.32C151.895 166.533 152.442 166.733 153.082 166.92C153.722 167.107 154.509 167.2 155.442 167.2C155.789 167.2 156.242 167.187 156.802 167.16C157.362 167.107 157.909 166.987 158.442 166.8C159.002 166.613 159.469 166.36 159.842 166.04C160.242 165.693 160.442 165.213 160.442 164.6C160.442 164.12 160.309 163.72 160.042 163.4C159.775 163.053 159.415 162.76 158.962 162.52C158.509 162.28 157.975 162.08 157.362 161.92C156.775 161.733 156.149 161.547 155.482 161.36C154.709 161.147 153.922 160.907 153.122 160.64C152.349 160.373 151.642 160.027 151.002 159.6C150.362 159.173 149.842 158.64 149.442 158C149.042 157.333 148.842 156.52 148.842 155.56C148.842 154.653 149.029 153.813 149.402 153.04C149.775 152.24 150.309 151.547 151.002 150.96C151.695 150.373 152.522 149.92 153.482 149.6C154.469 149.28 155.562 149.12 156.762 149.12Z" fill="url(#paint1_linear_271_1484)" fill-opacity="0.8"/>
<defs>
<linearGradient id="paint0_linear_271_1484" x1="74.5" y1="48.5" x2="82.1481" y2="110.818" gradientUnits="userSpaceOnUse">
<stop offset="0.223958" stop-color="#FFD39F"/>
<stop offset="1" stop-color="#FFE082"/>
</linearGradient>
<linearGradient id="paint1_linear_271_1484" x1="69.3138" y1="126.792" x2="105.866" y2="176.554" gradientUnits="userSpaceOnUse">
<stop stop-color="#948661"/>
<stop offset="0.567708" stop-color="#D2BE77"/>
<stop offset="1" stop-color="#FBA75A"/>
</linearGradient>
</defs>
</svg>
